<svg xmlns="http://www.w3.org/2000/svg" width="187.289" height="23.723" viewBox="0 0 187.289 23.723"><defs><style>.a{fill:#f4cf6c;}</style></defs><g transform="translate(-744.238 371.6)"><g transform="translate(718.59 -469.035)"><path class="a" d="M12.486,0l3.9,7.8,8.584,1.249-6.243,6.087,1.4,8.584-7.648-4.058L4.838,23.723l1.4-8.584L0,9.052,8.584,7.8Z" transform="translate(25.648 97.435)"/><path class="a" d="M12.486,0l3.9,7.8,8.584,1.249-6.243,6.087,1.4,8.584-7.648-4.058L4.838,23.723l1.4-8.584L0,9.052,8.584,7.8Z" transform="translate(66.227 97.435)"/><path class="a" d="M12.486,0l3.9,7.8,8.584,1.249-6.243,6.087,1.4,8.584-7.648-4.058L4.838,23.723l1.4-8.584L0,9.052,8.584,7.8Z" transform="translate(106.807 97.435)"/><path class="a" d="M12.486,0l3.9,7.8,8.584,1.249-6.243,6.087,1.4,8.584-7.648-4.058L4.838,23.723l1.4-8.584L0,9.052,8.584,7.8Z" transform="translate(147.386 97.435)"/><path class="a" d="M12.486,0l3.9,7.8,8.584,1.249-6.243,6.087,1.4,8.584-7.648-4.058L4.838,23.723l1.4-8.584L0,9.052,8.584,7.8Z" transform="translate(187.966 97.435)"/></g></g></svg>